<svg xmlns="http://www.w3.org/2000/svg" width="400" height="300" viewBox="0 0 400 300">
  <!-- Background -->
  <rect x="0" y="0" width="400" height="300" fill="#f8f9fa" rx="8" />
  
  <!-- Meeting Table -->
  <ellipse cx="200" cy="200" rx="150" ry="60" fill="#dee2e6" />
  <ellipse cx="200" cy="190" rx="140" ry="50" fill="#ffffff" />
  
  <!-- Laptop 1 -->
  <rect x="130" y="170" width="60" height="40" rx="2" fill="#2c3e50" />
  <rect x="135" y="175" width="50" height="30" rx="1" fill="#4a6de5" opacity="0.7" />
  
  <!-- Laptop 2 -->
  <rect x="210" y="170" width="60" height="40" rx="2" fill="#2c3e50" />
  <rect x="215" y="175" width="50" height="30" rx="1" fill="#4a6de5" opacity="0.7" />
  
  <!-- Coffee Cup -->
  <rect x="290" y="180" width="20" height="25" rx="2" fill="#e74c3c" />
  <rect x="288" y="180" width="24" height="5" rx="2" fill="#e74c3c" />
  <rect x="295" y="175" width="10" height="5" rx="2" fill="#e74c3c" />
  
  <!-- Notepad -->
  <rect x="85" y="180" width="30" height="40" rx="1" fill="#f8f9fa" stroke="#6c757d" stroke-width="1" />
  <line x1="90" y1="190" x2="110" y2="190" stroke="#6c757d" stroke-width="1" />
  <line x1="90" y1="200" x2="110" y2="200" stroke="#6c757d" stroke-width="1" />
  <line x1="90" y1="210" x2="105" y2="210" stroke="#6c757d" stroke-width="1" />
  
  <!-- People at Table (simplified) -->
  <!-- Person 1 (left) -->
  <circle cx="100" cy="130" r="25" fill="#4a6de5" opacity="0.8" />
  <circle cx="100" cy="115" r="12" fill="#f8f9fa" />
  <rect x="90" y="150" width="20" height="30" rx="5" fill="#4a6de5" opacity="0.8" />
  
  <!-- Person 2 (middle left) -->
  <circle cx="160" cy="120" r="25" fill="#2c3e50" opacity="0.8" />
  <circle cx="160" cy="105" r="12" fill="#f8f9fa" />
  <rect x="150" y="140" width="20" height="30" rx="5" fill="#2c3e50" opacity="0.8" />
  
  <!-- Person 3 (middle right) -->
  <circle cx="240" cy="120" r="25" fill="#e74c3c" opacity="0.8" />
  <circle cx="240" cy="105" r="12" fill="#f8f9fa" />
  <rect x="230" y="140" width="20" height="30" rx="5" fill="#e74c3c" opacity="0.8" />
  
  <!-- Person 4 (right) -->
  <circle cx="300" cy="130" r="25" fill="#2ecc71" opacity="0.8" />
  <circle cx="300" cy="115" r="12" fill="#f8f9fa" />
  <rect x="290" y="150" width="20" height="30" rx="5" fill="#2ecc71" opacity="0.8" />
  
  <!-- Connection Lines (collaboration) -->
  <line x1="110" y1="100" x2="145" y2="95" stroke="#4a6de5" stroke-width="1.5" stroke-dasharray="3,2" />
  <line x1="175" y1="95" x2="225" y2="95" stroke="#4a6de5" stroke-width="1.5" stroke-dasharray="3,2" />
  <line x1="255" y1="95" x2="290" y2="100" stroke="#4a6de5" stroke-width="1.5" stroke-dasharray="3,2" />
  
  <!-- Thought Bubbles -->
  <circle cx="125" cy="70" r="10" fill="#ffffff" stroke="#4a6de5" stroke-width="1" />
  <circle cx="140" cy="60" r="15" fill="#ffffff" stroke="#4a6de5" stroke-width="1" />
  <rect x="135" y="50" width="15" height="2" rx="1" fill="#4a6de5" />
  <rect x="135" y="55" width="10" height="2" rx="1" fill="#4a6de5" />
  
  <circle cx="270" cy="60" r="15" fill="#ffffff" stroke="#4a6de5" stroke-width="1" />
  <rect x="265" y="57" width="10" height="2" rx="1" fill="#4a6de5" />
  <rect x="265" y="62" width="15" height="2" rx="1" fill="#4a6de5" />
  
  <!-- Whiteboard on Wall -->
  <rect x="100" y="30" width="200" height="30" rx="2" fill="#ffffff" stroke="#6c757d" stroke-width="1" />
  <line x1="120" y1="40" x2="170" y2="40" stroke="#2c3e50" stroke-width="1" />
  <line x1="180" y1="40" x2="200" y2="40" stroke="#4a6de5" stroke-width="2" />
  <line x1="210" y1="40" x2="260" y2="40" stroke="#2c3e50" stroke-width="1" />
  <circle cx="280" cy="45" r="5" fill="#e74c3c" />
  
  <!-- Project Chart (simplified) -->
  <rect x="320" y="20" width="50" height="60" rx="2" fill="#ffffff" stroke="#6c757d" stroke-width="1" />
  <rect x="325" y="30" width="40" height="5" rx="2" fill="#4a6de5" />
  <rect x="325" y="40" width="30" height="5" rx="2" fill="#2ecc71" />
  <rect x="325" y="50" width="20" height="5" rx="2" fill="#e74c3c" />
  <rect x="325" y="60" width="35" height="5" rx="2" fill="#f1c40f" />
</svg> 