<svg xmlns="http://www.w3.org/2000/svg" width="400" height="300" viewBox="0 0 400 300">
  <!-- Shield Background -->
  <path d="M200,60 L100,100 L100,180 C100,220 140,250 200,270 C260,250 300,220 300,180 L300,100 L200,60 Z" fill="#f8f9fa" stroke="#4a6de5" stroke-width="2"/>
  
  <!-- Lock Body -->
  <rect x="155" y="140" width="90" height="70" rx="8" fill="#4a6de5"/>
  
  <!-- Lock Shackle -->
  <path d="M170,140 L170,120 C170,100 185,85 200,85 C215,85 230,100 230,120 L230,140" fill="none" stroke="#4a6de5" stroke-width="12" stroke-linecap="round"/>
  
  <!-- Lock Keyhole -->
  <circle cx="200" cy="170" r="15" fill="#f8f9fa"/>
  <rect x="197" y="170" width="6" height="20" rx="2" fill="#f8f9fa"/>
  
  <!-- Network Connections -->
  <line x1="100" y1="130" x2="130" y2="130" stroke="#2c3e50" stroke-width="2" stroke-dasharray="5,5"/>
  <line x1="130" y1="130" x2="155" y2="160" stroke="#2c3e50" stroke-width="2" stroke-dasharray="5,5"/>
  
  <line x1="300" y1="130" x2="270" y2="130" stroke="#2c3e50" stroke-width="2" stroke-dasharray="5,5"/>
  <line x1="270" y1="130" x2="245" y2="160" stroke="#2c3e50" stroke-width="2" stroke-dasharray="5,5"/>
  
  <line x1="100" y1="220" x2="130" y2="220" stroke="#2c3e50" stroke-width="2" stroke-dasharray="5,5"/>
  <line x1="130" y1="220" x2="155" y2="190" stroke="#2c3e50" stroke-width="2" stroke-dasharray="5,5"/>
  
  <line x1="300" y1="220" x2="270" y2="220" stroke="#2c3e50" stroke-width="2" stroke-dasharray="5,5"/>
  <line x1="270" y1="220" x2="245" y2="190" stroke="#2c3e50" stroke-width="2" stroke-dasharray="5,5"/>
  
  <!-- Network Nodes -->
  <circle cx="100" cy="130" r="8" fill="#2c3e50"/>
  <circle cx="300" cy="130" r="8" fill="#2c3e50"/>
  <circle cx="100" cy="220" r="8" fill="#2c3e50"/>
  <circle cx="300" cy="220" r="8" fill="#2c3e50"/>
  
  <!-- Security Elements -->
  <circle cx="80" cy="100" r="15" fill="#f8f9fa" stroke="#4a6de5" stroke-width="2"/>
  <path d="M75,100 L80,105 L85,95" stroke="#4a6de5" stroke-width="2" stroke-linecap="round" stroke-linejoin="round"/>
  
  <circle cx="320" cy="100" r="15" fill="#f8f9fa" stroke="#4a6de5" stroke-width="2"/>
  <path d="M315,100 L320,105 L325,95" stroke="#4a6de5" stroke-width="2" stroke-linecap="round" stroke-linejoin="round"/>
  
  <circle cx="80" cy="250" r="15" fill="#f8f9fa" stroke="#4a6de5" stroke-width="2"/>
  <path d="M75,250 L80,255 L85,245" stroke="#4a6de5" stroke-width="2" stroke-linecap="round" stroke-linejoin="round"/>
  
  <circle cx="320" cy="250" r="15" fill="#f8f9fa" stroke="#4a6de5" stroke-width="2"/>
  <path d="M315,250 L320,255 L325,245" stroke="#4a6de5" stroke-width="2" stroke-linecap="round" stroke-linejoin="round"/>
</svg> 